# xmcd CD database file generated by Grip 2.95
# 
# Track frame offsets:
#       182
#       14945
#       37637
#       49952
#       67297
#       82115
#       95250
#       116225
#       128995
#       156160
#       174300
#       204632
#       219295
# 
# Disc length: 3118 seconds
# 
# Revision: 3
# Processed by: cddbd v1.4PL0 Copyright (c) Steve Scherf et al.
# Submitted via: Grip 2.95
# 
DISCID=bc0c2c0d
DTITLE=Brownie McGhee and Sonny Terry - Blowin' The Fuses
DYEAR=1900
DGENRE=
TTITLE0=Gonna Lay My Body Down
TTITLE1=Drinking In The Blues
TTITLE2=Po' Boy
TTITLE3=Just Rode In Your Town
TTITLE4=Sun's Gonna Shine
TTITLE5=Walk On
TTITLE6=Blues For The Low Lands
TTITLE7=Right On That Shore (With Lightnin' Hopkins)
TTITLE8=Blowin' The Fuses
TTITLE9=I'm A Stranger Here
TTITLE10=Everybody's Blue (With Lightnin' Hopkins)
TTITLE11=Trouble In Mind
TTITLE12=Down By The Riverside
EXTD=
EXTT0=
EXTT1=
EXTT2=
EXTT3=
EXTT4=
EXTT5=
EXTT6=
EXTT7=
EXTT8=
EXTT9=
EXTT10=
EXTT11=
EXTT12=
PLAYORDER=
